<?xml version="1.0" encoding="UTF-8"?><svg id="Layer_2" xmlns="http://www.w3.org/2000/svg" viewBox="0 0 546.53 140"><defs><style>.cls-1{fill:#fff;}.cls-2{letter-spacing:-.05em;}.cls-3{fill:#231f20;font-family:InterV-Black, 'Inter V';font-size:109.97px;font-variation-settings:'wght' 900, 'slnt' 0;}</style></defs><g id="Layer_1-2"><g><path d="M60.91,18.16c.48-.41,.83-.72,1.18-1.03l.35,.23c-.34,.63-.69,1.25-1.06,1.95,1.06-.09,1.49-.86,1.37-1.6-.1-.61-.79-1.12-1.38-1.89,.02-.04,.22-.44,.6-1.18-.19,.04-.37,.1-.49,.22-.82,.85-.99,1.97-.58,3.3Z"/><path d="M102.41,102.55c-.19-1.2-.5-2.37-.76-3.56h.05c-.05-.22-.08-.44-.12-.67l-.18,.04c-.09-.4-.22-.76-.26-1.13-.63-5.22-2.54-10.03-4.82-14.7-.46-.94-1.17-1.77-1.76-2.65h-6.75c.14-.12,.59-.49,1.04-.87-.31-.21-.61-.42-.84-.57l.47-.18c-.3-.31-.56-.59-.88-.92l.85-.67c-.47,1.43,.33,1.85,3.74,2.12-1.2,.06-2.29,.12-3.37,.18,.38,.28,.75,.79,1.15,.82,1.52,.11,3.06,.07,4.59,.09-.14-.27-.28-.54-.38-.73,.57-.29,1.28-.53,1.85-.96,3.62-2.77,7.35-5.44,10.76-8.45,1.66-1.47,2.76-3.59,4.04-5.46,.15-.21-.13-.72-.21-1.09l-.03-.68c.22-1.28,.2-2.66,.7-3.81,.81-1.89,.52-3.76,.33-5.63-.08-.75-.74-1.44-1.11-2.17-.89-1.75-1.76-3.52-2.64-5.27,.14,.79,.29,1.58,.43,2.36l-.23,.08c-.6-1.46-1.2-2.92-1.8-4.38l.21-.13c.47,.7,.94,1.4,1.41,2.11-.46-1.7-.92-3.4-1.39-5.12l.53-.28c-.59-.76-1.11-1.58-1.56-2.45-1.2-1.02-2.24-2.22-3.09-3.56-.04,.06-.08,.11-.13,.17-.11-1.11-1.79-1.51-1.53-2.68-.22-.14-.43-.28-.65-.43-.06,.05-.12,.11-.18,.16-.18-.24-.37-.46-.56-.69-1.11-.82-2.16-1.71-3.1-2.65-.73-.72-1.36-1.52-2.03-2.3-.44-.23-.86-.49-1.28-.76-.11-.03-.21-.07-.31-.1-.69-.18-1.26-.82-2.12-1.42l.49-.03c-.3-.28-.6-.58-.88-.89-.18-.07-.36-.15-.56-.23-.83-.41-1.55-.81-2.33-1.3-.93-.59-1.74-1.2-2.5-1.86-2.26-.45-4.3-1.4-6.05-2.73-1.44-.43-2.8-1.04-4.02-1.85h-8.98c-1.12-1.23-2.32-2.54-3.62-3.97,.25,.9,.46,1.7,.67,2.49l-.21,.07c-.51-1.24-1.02-2.48-1.53-3.72l-.38,.16c.08,.68,.17,1.36,.27,2.25-.74-.88-1.29-1.53-1.84-2.18l-.36,.22c.24,1.46,.47,2.92,.71,4.39l-.34,.07c-.18-.87-.36-1.75-.54-2.62l-.39-.07c-.56,1.65-1.11,3.31-1.67,4.96l.45,.16c.43-1.42,.86-2.83,1.29-4.25l.36,.07c-.35,2.04-.71,4.08-1.06,6.12l.48,.08c.29-.67,.56-1.36,.87-2.02,.29-.62,.61-1.21,.92-1.82l.21,.11c-.39,.9-.78,1.8-1.17,2.7l.33,.13c.57-1.1,1.11-2.23,1.73-3.31,.74-1.29,1.59-1.27,2.35-.17-.36,.06-.83,.04-1.22,.12l1.64,3.05c.08-.71,.13-1.12,.22-1.93,.22,3.05-1.4,4.65-3.72,4.15,.27,.29,.59,.59,.93,.61,.47,.03,.96-.14,1.49-.23-.72,2.61-3.28,5.82-5.12,6.25,1.59-1.32,1.95-2.89,.97-5-.33,1.46-.6,2.66-.86,3.8-.09-.21-.24-.55-.48-1.08-.12,.84-.2,1.45-.34,2.39-.78-1.7,.58-4.04-2.3-4.2-.21-1.39-.42-2.79-.64-4.33-.64,.33-1.12,.57-1.64,.84-.33-.29-.63-.55-1.32-1.16-.21,.41-.47,.77-.6,1.16-.36,1.17-1.5,1.41-2.33,1.98-.85,.59-1.8,1.03-2.7,1.54l.11,.35c-.34-.18-.68-.36-.96-.51-1.62,1.97-.23,4.15-.63,6.31-1.06-.43-2.06-.8-3.03-1.23-1.2-.52-1.88-1.44-1.66-2.77,.34-2.05,.78-4.08,1.17-6.12,1.01,1.42,2.01,1.67,3.14,.66,.45-.4,.75-.98,1.1-1.48,.07,.58,.05,1.2,.24,1.74,.16,.45,.81,1.19,.87,1.16,1.08-.62,2.14-1.27,3.1-2.06,.25-.21,.13-.88,.13-.96,1.17,0,2.31,.04,3.46,0,1.7-.07,.76-2.12,2.03-2.53-.48-.53-.87-.96-1.26-1.39,.04,.28,.08,.55,.13,.9-1.77,.43-3.8-.4-5.06,1.03-.17,.57-.31,1.03-.44,1.49,1.23,.09,.76,1.01,.44,1.34-.71,.74-1.63,1.28-2.5,1.94-.8-1.83-.57-2.8,.55-2.87-.2-.36-.54-.7-.58-1.08-.13-1.13,1.25-2.25-.3-3.32,1.05-.24,1.17,1.93,2.23,.42-.51-.34-1.02-.68-1.66-1.1,.06-.04-.19,.14-.66,.49,.12-.58,.18-.88,.26-1.26-.37,.28-.7,.52-1.02,.77,1.15,.34,.39,1.19,.15,1.43-.52,.51-1.29,.91-1.94,.03-.46,.12-.91,.24-1.37,.36l-.17-.31c.82-.78,1.64-1.56,2.45-2.34-.09-.21-.17-.41-.26-.62-.85,.95-1.75,1.85-2.51,2.87-.34,.46-.43,1.14-.53,1.74-.15,.97-.13,1.98-.33,2.94-.43,2-1.05,3.96-1.44,5.97-.35,1.83,.58,3.04,2.26,3.71,1.2,.48,2.4,.96,3.73,1.5-.34,4.09-.67,8.12-1,12.23,1.07,.18,2.29,.38,3.52,.58l-.03,.22c-1.28-.14-2.56-.27-3.85-.41l-.09,.38c1.17,.48,2.34,.97,3.52,1.46,.1,.75,.21,1.55,.31,2.35-.43,.33-.87,.67-1.32,1.01,.11,.14,.23,.28,.34,.42l2.47-2,.33,.15c-.23,.74-.45,1.48-.74,2.43l1.97-.86c-.08,.37-.18,.81-.32,1.46H25.35c.18,.79,.61,1.68,.39,1.89-.66,.65-1.55,1.08-2.41,1.46-.13,.06-.86-.62-.82-.89,.13-.81,.49-1.58,.84-2.59-7.49,.54-15.14,1.09-22.62,1.63,.53,.85,.99,1.45,1.27,2.13,.09,.22-.34,.64-.53,.97-.3-.22-.69-.39-.88-.68-.23-.37-.3-.84-.43-1.27l-.15,.04c1.46,16.69,2.93,33.39,4.41,50.27,3.97,.63,7.84,1.22,11.7,1.85,3.95,.64,7.89,1.32,11.83,1.98,.17,.03,.36,0,.53-.05,.9-.25,1.78-.71,2.68-.76,3.41-.17,6.82-.25,10.23-.28,4.19-.04,8.38-.01,12.57-.01l.02-.32h-14.43v-.38c5.48,0,10.94-.03,16.41,.02,1.66,.01,3.32,.31,4.99,.32,1.83,.01,3.67-.2,5.5-.24,1.82-.03,3.65,.05,5.47,.05,.31,0,.66-.15,.92-.34,.55-.4,2.86-.02,2.74,.45-.26,1,.51,.89,.89,.96,1.84,.34,3.7,.57,5.43,.83l-.54,.16c2.93,.61,5.6,.37,8.27-.14,1.11-.21,2.44-.69,3.33-.29,2.62,1.17,5.13,.59,7.67,.04,.63-.14,1.16-.74,1.74-1.13-.09-.14-.18-.29-.27-.43-.73,.16-1.45,.32-2.48,.55,1.11-.92,3.11-.28,2.79-2.32Zm4.21-54c.81,.29,1.26,2.16,2.51,.43,.32,1.03,.61,1.99,1,3.25-.88-.29-1.55-.55-2.24-.71-.55-.13-1.12-.13-1.95-.21,1.42-.77-.9-2.08,.69-2.76Zm-.85,4.93c.28,.07,.69,.18,1.11,.26,1.09,.21,2.2,.37,3.27,.63,1.21,.3,1.71,1.19,1.23,2.32-.45,1.06-1.38,.9-2.24,.58-1.22-.45-2.41-.93-3.61-1.4-.34,.53-.61,.95-.88,1.38l-.14-.09c.42-1.24,.85-2.48,1.26-3.69Zm-5.27-6.34c.14-.09,.52,0,.68,.13,1.4,1.19,2.78,2.41,4.24,3.68-.28,.2-.6,.42-.78,.55-.34-.2-.75-.64-1.12-.61-2.3,.2-2.61-1.61-3.24-3.09-.07-.17,.06-.56,.22-.66Zm-3.17,1.83c1.71-1.01,1.89-.91,2.13,1.2-1.21-.07-2.3-.12-3.68-.2,.66-.43,1.1-.73,1.55-1Zm-3.19,2.95c3.19,.34,6.37,.74,9.92,1.16-.2,1.18-.36,2.08-.52,2.99-.66-1.38-10.33-2.6-13.36-1.7,.67-1.43,2.48-2.61,3.96-2.45ZM52.31,16.01c-1.25,1.03-2.05,.47-2.74-.71,.86,.22,1.72,.45,2.74,.71Zm-9.76,2.75c-1.12,.44-1.53,.07-1.51-1.38,1,1.09,1.98,1.15,2.96,.12,.03-.04,.26,.11,.41,.18-.61,.37-1.19,.82-1.85,1.08Zm-1.05-1.58c.94-.4,1.8-.77,2.8-1.19-.7,1.83-1.59,2.22-2.8,1.19Zm2.16-1.87l.1,.35c-.9,.26-1.8,.55-2.71,.74-.09,.02-.31-.61-.54-1.09h3.15Zm39.9,82.75c-1.53-.17-3.07-.34-4.55-.5,1.71-1.11,3.59-.91,4.55,.5Zm-7.24-46.45c1.1,2.02,1.47,3.98,1.36,6.39-1.63-2.48-2.85-4.55-1.36-6.39Zm-2.48-5.09l-.28,.38c-.68-.38-1.35-.76-2.2-1.24-.26,1.13-.5,2.14-.74,3.17v-3.79c-.72-.35-1.61-.79-2.57-1.26v13.9l-.3,.03c-.26-4.86-.51-9.71-.78-14.89,2.32,1.25,4.59,2.47,6.86,3.7Zm-1.74,9.11l-.17,.02-.19-.45-.39,.1v-2.63h.35c.13,.98,.27,1.97,.4,2.95Zm-2.49-6.95h-.17c-.11-1.23-.21-2.45-.33-3.79l.95,.39c-.15,1.17-.3,2.28-.45,3.4Zm.42,5.09h-1.22c.2-1.26,.4-2.56,.63-4.04,.22,1.48,.41,2.75,.6,4.04Zm-12.1-23.38l-1.15,1.77,.34,.24c1.22-1.83,2.45-3.67,3.67-5.5l.26,.14c-1.17,2.08-2.23,4.24-3.55,6.21-.8,1.2-1.9,.79-2.6-.61,.97-.72,1.91-1.42,3.03-2.25Zm-1.24,11.88c.67,2.18,2.32,4.02,2.33,6.56h-4.59c.09-.92,.17-1.8,.25-2.69,.4-.14,.98-.33,1.56-.53h.03c.17,.14,.33,.27,.49,.4,.1-.22,.3-.46,.27-.66-.14-1.01-.33-2.01-.35-3.07Zm-7.96-21.07c.36-.19,.71-.38,1.07-.56,.56-.29,1.12-.58,1.68-.87,.32,.64,.65,1.29,.89,1.78h-3.75l.11-.35Zm-2.83,7.73c-.14-.59,.22-1.3,.43-2.29-.04-.02-.09-.04-.14-.06-.29-.16-.33-.79-.52-1.29,.68,.16,1.11,.38,1.53,.34,1.26-.1,2.52-.24,3.74-.52,.29-.06,.44-.71,.44-1.23-.25,.3-.49,.6-.8,.97l-.7-.64c-.17,.26-.33,.51-.56,.87-.3-.37-.54-.67-.9-1.11-.11,.49-.2,.88-.35,1.54-.3-.63-.48-1.02-.74-1.59l-.51,1.37q-1.04-1.76-.17-3.34l.83,.74,.76-1.14c.28,.43,.49,.76,.81,1.27l.83-1.26c.22,.48,.34,.74,.5,1.09,.31-.25,.61-.49,.9-.72,.13,.11,.27,.19,.26,.21-.13,.32-.24,.87-.44,.91-.87,.15-1.76,.16-2.65,.19-.59,.02-1.19,0-1.78,.32,1.43,0,2.89,.19,4.27-.05,1.37-.24,1.56,.33,1.5,1.38-.03,.6-.11,1.2-.2,2.18,.79-.9,1.37-1.56,2.12-2.41-.66,3.44-1.17,3.78-4.05,2.87-.06-.51-.12-1.04-.18-1.57h-.13c-.06,.89-.12,1.78-.21,3.1-.6-1.03-.99-1.71-1.48-2.57l.04,.77c-.59-.17-1.24-.29-1.83-.53,1.31,1.07,2.3,1.87,3.35,2.73l.69-1.03h3.5c-1.1,.98-1.53,2.75-3.45,2.61,.58-.49,1.1-.93,1.62-1.37l-.15-.15c-.99,.43-1.94,.99-2.98,1.26-1.79,.48-2.78-.09-3.21-1.85Zm1.2,15.67c.12-.5,.2-.85,.28-1.2,.07-.3,.13-.61,.26-1.2,2.9,1.15,5.72,2.26,8.53,3.38-.51-.09-1.04-.14-1.53-.29-.52-.16-1-.44-1.68-.76-.18,1.52-.34,2.87-.5,4.25h-1.26c.1-1.56,.19-3.04,.28-4.51l-.31-.04c-.18,1.52-.36,3.03-.53,4.55l-.29-.03v-4.94c-1.03-.69-1.96-.51-3.25,.8Zm-17.49,7.48l.36-.09c-.18-.73-.37-1.46-.6-2.38h35.99c-.2,.54-.38,1.01-.48,1.27H31.8v.44c1.24,0,2.49,0,3.74,0,9.31,0,18.62-.05,27.93,.04,1.21,.01,2.42,.76,3.62,1.16l-.05,.37c-.52,.06-1.05,.18-1.57,.17-8.75-.07-17.5-.15-26.25-.23-3.43-.03-6.86-.05-10.29-.07-1.09,0-2.39-1.41-2.5-2.72,1.93-.93,2.7-.44,3.18,2.03Zm35.65,12.39H30.81v.37c2.57,0,5.13,.02,7.7,0,8.33-.07,16.65-.15,24.98-.23,.33,0,.69-.1,.97,.02,.32,.12,.56,.43,.83,.66-.26,.19-.52,.53-.79,.54-2.05,.11-4.11,.19-6.16,.2-6.5,.02-13.01-.06-19.51,.02-3.17,.04-6.33,.33-9.62,.51-.07-1.32-.14-2.55-.22-3.88,3.56,0,6.81,.06,10.06-.01,4.96-.1,9.91-.32,14.86-.44,3.45-.08,6.91-.16,10.37-.09,1.46,.03,.6,1.33,.98,2.33Zm-38.56-3.28c.62,0,1.71-.13,1.76,.02,.24,.85,.21,1.78,.28,2.77h-2.04v-2.79Zm-.12-.4v-9.11c.52,.91,1.14,1.51,1.17,2.13,.12,2.22,.05,4.45,.05,6.86l-1.22,.12Zm.2,4.34c1.76-.4,2.49-.74,1.7,2.26-.58,.03-1.08,.05-1.7,.09v-2.35Zm1.63-4.56c-.17-2.46-.33-4.92-.5-7.38,.21,0,.42-.02,.63-.03,.13,2.46,.27,4.91,.4,7.37l-.53,.04Zm-4.38-7.05l.42,1.4c-.07-.66-.15-1.33-.25-2.18,.27-.16,.86-.52,1.6-.98,.07,2.8,.14,5.49,.18,8.18,0,.24-.27,.48-.42,.72-.22-.23-.6-.43-.62-.68-.15-1.52-.22-3.06-.34-4.59-.01-.17-.11-.34-.17-.51v5.43l-.17,.03c-.13-2.26-.25-4.52-.38-6.79l.15-.03ZM1.93,51.51c.01-.18,.03-.35,.04-.53,6.82-.52,13.65-1.03,20.47-1.55l.14,.42c-.39,.18-.77,.48-1.17,.52-3.49,.29-6.98,.51-10.47,.78-2.46,.19-4.92,.46-7.38,.64-.53,.04-1.08-.18-1.62-.28Zm20.32,.84c-5.71,.35-11.38,.68-17.06,1.06-1,.07-1.98,.34-2.97,.53,.12-.61,.24-1.23,.36-1.83,6.46-.47,12.9-.95,19.41-1.42,.11,.72,.19,1.24,.25,1.66ZM.97,54.12l1.22-.14c.1,1.94,.2,3.88,.3,5.81l-.16,.03c-.07-.44-.15-.89-.22-1.33l-.21,.02c.04,.79,.07,1.59,.11,2.38l-.34,.03c-.23-2.24-.45-4.47-.69-6.8Zm2.17,9.37c.49-.15,.98-.41,1.48-.43,5.92-.21,11.85-.38,17.77-.6,.93-.03,1.36,.16,1.05,1.24-1.79,.11-3.6,.25-5.41,.32-3.64,.14-7.28,.24-10.93,.38-.55,.02-1.1,.16-1.65,.24,6.31-.15,12.62-.29,18.91-.44-.25-1.05-.47-1.95-.68-2.82,.62-.14,1.11-.31,1.6-.32,.23,0,.68,.32,.66,.45-.1,.85,.58,1.87-.51,2.53-.02,.01,.13,.32,.23,.55h-1.91c-.05,.38-.09,.71-.13,1.01-6.64,.19-13.22,.39-19.94,.58-.05-.29-.13-.72-.22-1.21,.77-.13,1.4-.24,2.02-.35-2.39,.1-3.87-1.1-3.78-3.04,1.11,.05,1.17,.13,1.43,1.9Zm20.98,1.54q2.03-.21,1.86,2.2c-1.68,.33-1.86,.13-1.86-2.2Zm2.13,36.8l-.27,.09c-.19-.61-.52-1.22-.54-1.84-.28-9.1-.52-18.19-.79-27.29-.05-1.62-.18-3.24-.27-4.86h.33c.51,11.31,1.03,22.6,1.54,33.89Zm-7.57-20.33c.03,.85-.39,1.06-1.1,1.03-2.19-.09-4.38-.15-6.57-.31-.31-.02-.77-.52-.84-.86-.2-.9-.28-1.84-.33-2.77-.1-1.86,.12-2.11,2.02-2.1,2.27,.02,4.53,.14,6.81,.22,0,1.81-.04,3.3,.02,4.79Zm-13.89,16.56c-.3-2.26-.66-4.52-.85-6.8-.63-7.44-1.19-14.88-1.77-22.32-.03-.38,0-.76,.33-1.2l.72,1.96c-.08-.64-.17-1.28-.25-1.92,.16-.02,.33-.03,.49-.05,.97,10.26,1.93,20.52,2.91,30.89l-.96-.12,.02-.02c-.53,.19-.55,.2-.63-.43Zm.6,3.59c-.06-.76-.12-1.47-.19-2.41,.42,.03,1.08-.06,1.17,.12,.34,.69,.49,1.48,.77,2.44-.8-.07-1.24-.1-1.74-.15Zm19.45,2.38c-.09,1.04-.86,.48-1.25,.43-3.23-.47-6.45-1.01-9.67-1.51-1.61-.25-3.23-.5-4.85-.71-1.08-.14-2.06-.29-1.79-1.8,.06-.33-.14-.7-.27-1.28,5.93,.97,11.7,1.91,17.28,2.82,.2,.74,.38,1.4,.55,2.06h0Zm0,0v-1.7c.65,.08,1.32,.17,1.99,.25-.16-2.18-.35-4.35-.47-6.53-.25-4.66-.5-9.32-.69-13.99-.19-4.66-.31-9.33-.22-14.23,.21,.32,.58,.64,.6,.97,.13,2.99,.15,5.98,.3,8.96,.41,7.92,.89,15.85,1.31,23.77,.03,.5-.14,1.01-.22,1.52,.2,.58,.4,1.16,.72,2.08-1.27-.65-2.61,.22-3.33-1.12Zm5.96,.53c-.68,.05-1.36,.2-2.04,.31-.46-1.1-.19-1.94,.59-2.67-.28,.13-.56,.25-1.18,.53-.55-11.66-1.08-23.08-1.61-34.46,2.02-.64,2.23-.46,2.33,1.43,.4,7.23,.84,14.46,1.24,21.69,.18,3.26,.28,6.53,.41,9.79,1.65-.2,1.41,1.1,1.56,2.03,.15,.94-.41,1.3-1.3,1.36Zm1.67-.4l.09-2.12c7.62-.95,15.28-1.91,22.93-2.87,.29,.82,.56,1.59,.87,2.47-7.96,.84-15.92,1.68-23.9,2.52Zm20.96-.65v-.28h4.1v.28h-4.1Zm9.25-.8c-.3-.25-.6-.49-.9-.74l-.16,.14c.23,.37,.45,.74,.68,1.1-1.4,.87-1.67,.78-2.21-1.11l-.57,1.78c-1.2,.2-1.26-.66-1.26-1.28,1.36-1.09,2.52-2.03,4.01-3.23-1.71,.03-2.51,1.26-3.57,1.55-.29-.7-.58-1.42-.76-1.86,.84-.87,1.58-1.69,2.38-2.45,.39-.36,.86-.71,1.35-.88,1.98-.65,2.26-1.08,2.28-3.09,.05-4.95,.15-9.9,.31-14.85,.03-1.06,.18-2.2,.61-3.15,2.56-5.59,.16-11.03-.05-16.72l2.07,.9c.08-.35,.18-.81,.28-1.3,1.91,1.34,.49,3.7,1.77,5.46,0-1.3-.02-2.35,0-3.4,.02-.89-.13-1.73,.71-2.54,.45-.44,.22-1.59,.3-2.42q.9,.11,.99,2.66c-.95-.07-1.42,1.09-1.29,3.35,.48,.02,.97,.05,1.71,.09v-5.31c.43,1.58,.93,3.15,1.24,4.76,.22,1.17,.17,2.39,.49,3.57-.22-2.86-.45-5.73-.67-8.59l.33-.07c.25,1.07,.49,2.14,.74,3.21l.3,.03c.28-1.23,.57-2.47,.85-3.7l.19,.05c-.14,1.86-.28,3.73-.44,5.76-.41-.24-.68-.4-.98-.58-.04,.13-.12,.25-.13,.37-.05,1.03-.4,2.18-.06,3.06,1.07,2.77,.23,5.54,.35,8.3,.05,1.08,.51,2.17,.9,3.22,.36,.98,.14,1.61-1,2.1-.29-.43-.63-.93-1.05-1.56-.29,.44-.47,.61-.51,.81-.15,.69-.03,1.78-.42,2.01-1.4,.82-2.97,1.34-4.48,1.98-.17,.07-.33,.14-.5,.22l-.99,.27c.34,.12,.79,.44,1.01,.33,2.64-1.32,5.26-2.71,7.88-4.09,.12-.06,.24-.12,.46-.23,.09,1.21-.22,2.13-1.23,2.75-2.18,1.33-4.37,2.67-6.55,4-.28,.17-.55,.37-.77,.63,1.45-.43,2.58,.19,2.55,1.65,1.52-.85,2.96-1.64,4.47-2.48,.11,1.06-.32,1.71-1.22,2.19-1,.54-1.94,1.2-2.91,1.81h0c-.14-.16-.28-.31-.43-.45-.53-.5-1.12-1.45-1.58-1.39-.92,.11-1.67,.86-1.73,1.46,.36-.29,.99-.81,1.77-1.44,.43,1.25,.77,2.22,1.11,3.18l-.3,.11c-.25-.51-.5-1.03-.76-1.54l-.31,.1c.4,1.23,.8,2.47,1.2,3.7,.61,1.95-1.12,3.35-3.52,2.85,.67,.8,1.38,.81,3.49,.03-.58,.77-1.03,1.78-1.8,2.18-.59,.3-1.62-.24-2.51-.12,.39,.15,.79,.3,1.37,.52-.65,.43-1.14,.75-1.86,1.22,.11-.37,.15-.5,.28-.92-.48,.36-.76,.57-1.13,.85,1.65,1.46,2.57-1.8,4.04-.41,1.2-.97,2.39-1.93,3.74-3.02,.23,2.57-1.76,3.77-3.62,3.62-.72-.06-1.49,.11-2.18,.33-2.1,.66-2.15,.89-1.52,3,.14,.48-.16,1.09-.26,1.64h0Zm9.89-19.62c-1,.49-1.94,1.09-2.93,1.66-.53-.44-1.02-.84-1.55-1.27,2.01-1.25,3.96-2.47,6-3.75,.12,1.49-.11,2.67-1.51,3.36Zm-3.84,8.78q-.26-1.48,3.48-3.59c-.32,1.86-.99,2.52-3.48,3.59Zm-.19,2.85l-.33-.92h.02c.95-1.04,1.9-2.07,2.86-3.1,.32,2.26-.75,3.4-2.54,4.01Zm3.42-4.03l.27,.02v4.39l-.46-.03c.06-1.46,.13-2.93,.19-4.39Zm-3.02-1.41l.28-2.07c.76-.31,1.54-.6,2.29-.95,.46-.21,.88-.51,1.38-.81,.22,2.77-2.23,2.83-3.95,3.82Zm-3.92,9.31c.48-.27,1.04-.41,1.73-.66-1.22,.98-2.25,1.81-3.51,2.82-.04-.62-.08-1.18-.12-1.74l.46,.06c-.05,.17-.1,.34-.23,.78,.68-.52,1.14-.95,1.67-1.25Zm-1.38,4.92c-.35-.06-.63-.52-.94-.79,.45-.1,.89-.22,1.35-.31,1.19-.23,2.43-.32,3.55-.75,.34-.13,.43-1.14,.48-1.76,.04-.49-.17-.99-.29-1.61,.53-.29,1.12-.62,1.79-1,.14,.29,.35,.52,.35,.76,.04,2.87-3.49,5.96-6.28,5.45Zm10.98-.17c-1.72,.03-3.44-.05-5.16,.02-.75,.03-1.49,.31-2.24,.47l-.09-.36c2.81-1.43,5.8-.34,8.69-.75l.07,.35c-.42,.09-.84,.25-1.27,.26Zm-5.08-1.45h8.5c-.56,.5-5.21,.71-8.5,0Zm15.44-2.76l.06,.44c-.42,.11-.85,.32-1.27,.3-3.47-.17-6.95-.38-10.42-.57l-.02,.34c3.11,.14,6.22,.28,9.33,.42l.09,.29c-.79,.23-1.58,.63-2.38,.66-2.7,.08-5.41,.03-7.84,.03,.12-1.05,.23-2.08,.36-3.28,2.77,.13,5.55,.27,8.33,.37,.78,.03,1.57-.05,2.35-.08,0,.01,.02,.02,.03,.04,.58,.11,1.17,.21,1.75,.31v.09h-11.35c3.64,.21,7.3,.42,10.95,.63Zm12.71-3.4l.04,.13c-.72,.18-1.44,.36-2.35,.58l-1.7-.71h4.01Zm-1.77,5.62c-.32-.16-.71-.49-1.13-.54-2.21-.25-4.42-.42-6.64-.62l.14-.2c2.45,.19,4.9,.37,7.49,.57v-1.87c.93,.12,1.79,.23,2.91,.38-.83,0-1.42-.07-1.98,.03-.26,.05-.69,.47-.65,.63,.07,.31,.41,.77,.66,.79,1.19,.08,2.38,.04,3.79,.04-1.62,.72-3.39-.42-4.6,.8Z"/><path d="M45.18,9.31c-2.47,.02-4.94,.04-7.4,.09-.12,0-.23,.27-.34,.41l-.64,.05c.06-.19,.06-.51,.18-.56,2.23-.94,4.46-1.9,6.72-2.75,.74-.28,1.11-.65,1.53-1.35,.69-1.15,1.64-2.27,2.75-3,1.37-.91,2.97-1.57,4.56-2.04,2.41-.71,7.09,1.14,8.46,3.36,.97,1.57,1.62,3.35,2.38,5.04,.06,.13-.16,.39-.28,.66,.6,.36,1.25,.72,1.86,1.12,.56,.37,1.08,.78,1.62,1.17l-.21,.29c-1.26-.81-2.43-1.88-3.8-2.37-1.35-.48-2.91-.37-4.17-.5l-2.28,6.42h-.18c.02-.36-.04-.77,.08-1.1,.46-1.22,.99-2.41,1.47-3.62,.17-.42,.25-.87,.38-1.3l-.45-.16-1.58,4.41-.28-.09c.43-1.38,.85-2.75,1.42-4.6-1.11,.27-1.86,.47-2.62,.65-1.62,.38-3.23,.79-4.86,1.08-.37,.07-.81-.35-1.24-.44-.47-.11-.97-.1-1.46-.14l-1.62-.74Z"/><path d="M36.79,9.86l.64-.05c1.66-.1,3.32-.2,4.97-.3l-.86,.91c-.85,.27-1.69,.6-2.57,.79-1.2,.25-2.43,.39-3.64,.58l-.28-.46,1.73-1.47Z"/><path d="M52.56,13.26l-4.24,.87-.08-.08,4.3-1.76-.1-.28c-1.17,.44-2.33,.91-3.51,1.31-.48,.16-1.02,.16-1.53,.23,1.33-.71,2.59-1.78,4.01-2.03,1.21-.22,2.35-.12,3.1-1.62l-.69,2.75-1.26,.63Z"/><path d="M55.67,19.14c1.26,.26,1.57,1.15,1.49,2.15-.02,.24-1,.69-1.14,.58-.89-.75-.81-1.72-.35-2.73Z"/><path d="M42.21,22.48c.82,.92,.88,1.86,.32,3.4-1.21-1.03-.57-2.17-.32-3.4Z"/><path d="M110.61,63.21l-.03-.68c.27-.76,.55-1.51,.82-2.27l.33-.09c.06,.49,.29,1.03,.14,1.45-.22,.64,.01,1.76-1.26,1.6Z"/><path d="M41.55,10.43l.86-.91,1.01-.18c-.8,1.17-1.59,2.32-2.37,3.47l-.15-.09,.65-2.29Z"/><path d="M65.51,80.65v-2.63l.23,2.01,.45,.06,.49-2.55,.24,.04-.42,2.79-.99,.27Z"/><path d="M66.3,61.39l.59-2.08,.57,.08,.55,2.86c-1.32,.82-1.11-.71-1.73-.91l.02,.05Z"/><path d="M66.27,61.35l.59,6.34-.26,.03c-.37-2.88-.75-5.76-1.12-8.65l.08-.03c.24,.78,.48,1.56,.73,2.35l-.02-.04Z"/><path d="M71.12,74.11l.08,.78-.37,.06-.6-2.82,.39-.12,.3,.54,.77-1.11c-.3,1.11-1.08,2.21,.32,3.2l-.91-.54Z"/><path d="M65.85,92.76v-5.02h.23l.68,5.24-.91-.22Z"/><path d="M67.42,79.15l-.18-3.45h.57v3.45h-.39Z"/><path d="M64.8,90.68v-5.45h.22v5.45h-.22Z"/><path d="M71.04,62.52v4.17h-.3v-4.17h.3Z"/><path d="M28.34,69.5c.54,10.11,1.09,20.22,1.63,30.33h-.28l-1.58-30.31h.22Z"/><path d="M53.09,101.38c-6.48,.56-12.96,1.12-19.44,1.68l-.03-.3c6.48-.57,12.96-1.14,19.44-1.71l.03,.33Z"/><path d="M3.22,69.72c.23,3.47,.45,6.93,.68,10.4l-.33,.02c-.12-3.47-.23-6.94-.35-10.42h0Z"/><path d="M5.42,98.49c-.35-2.75-.71-5.51-1.06-8.26l.44-.05c.21,2.77,.41,5.54,.61,8.32,0,0,.01-.01,.01-.01Z"/><path d="M8.91,100.54c5.03,.85,10.06,1.7,15.08,2.55l-.07,.43c-5.02-.89-10.03-1.78-15.05-2.67l.04-.31Z"/><path d="M17.48,76.9l.27,4.18-.27,.03-.46-2.92h-.25c0,.55-.04,1.12,0,1.67,.08,.9-.13,1.42-1.19,1.37-1.24-.07-2.5,.09-3.73-.08-.43-.06-.94-.7-1.13-1.19-.27-.68-.39-1.47-.39-2.21,0-1.41,1.12-.4,1.68-.58l-1.29,.23c2.47,1.03,4.68-.13,6.77-.5Zm-1.29,1.07l-1.47,.62,.89,.3-3.33-.16-.25-.56-.21,.05v2.54h4.38v-2.79Z"/><path d="M11.16,81.66h6.5v.2h-6.56l.07-.2Z"/></g><text class="cls-3" transform="translate(122.14 104.86)"><tspan x="0" y="0">R</tspan><tspan class="cls-2" x="73.41" y="0">O</tspan><tspan x="155.89" y="0">ADIE</tspan></text><g id="iKCt70"><path class="cls-1" d="M53.42,78.98c.06,1.03,.13,1.99,.16,2.96,0,.09-.15,.24-.25,.27-1.6,.42-3.2,.87-4.82,1.23-2.05,.46-4.12,.84-6.3,1.27l.87-.05c3.4-.2,6.8-.4,10.19-.61,.35-.02,.48,.04,.49,.42,.02,.86,.09,1.72,.15,2.62-.16,.02-.3,.04-.44,.05-3.78,.23-7.55,.45-11.33,.68-.33,.02-.45-.05-.47-.4-.15-2.83-.33-5.67-.5-8.5-.01-.22-.02-.39,.26-.47,4.05-1.14,7.87-2.81,11.5-4.94,.03-.02,.07-.03,.17-.07,.01,.24,.03,.45,.04,.66,.05,.78,.07,1.57,.15,2.35,.03,.32-.09,.46-.35,.6-3.35,1.81-6.84,3.27-10.5,4.32-.15,.04-.29,.1-.43,.16,3.84-.57,7.62-1.45,11.41-2.56Z"/></g></g></svg>